<?xml version="1.0" standalone="no"?>
<!DOCTYPE svg PUBLIC "-//W3C//DTD SVG 20010904//EN"
 "http://www.w3.org/TR/2001/REC-SVG-20010904/DTD/svg10.dtd">
<svg version="1.0" xmlns="http://www.w3.org/2000/svg"
 width="270.000000pt" height="270.000000pt" viewBox="0 0 270.000000 270.000000"
 preserveAspectRatio="xMidYMid meet">
<metadata>
Created by potrace 1.11, written by Peter Selinger 2001-2013
</metadata>
<g transform="translate(0.000000,270.000000) scale(0.100000,-0.100000)"
fill="#000000" stroke="none">
<path d="M1140 2634 c-487 -78 -910 -447 -1045 -909 -154 -529 28 -1082 464
-1411 410 -308 980 -349 1429 -102 347 191 590 530 657 916 19 109 19 335 0
444 -89 514 -480 925 -995 1044 -138 33 -370 41 -510 18z m410 -498 c0 -6 -90
-530 -96 -558 l-6 -28 159 0 c167 0 203 -9 203 -48 0 -10 -126 -224 -279 -477
l-279 -460 -37 -3 c-20 -2 -43 -1 -50 1 -11 5 26 259 80 555 l6 32 -161 0
c-148 0 -162 2 -181 21 -12 12 -18 27 -14 39 3 10 130 224 281 475 l276 455
49 0 c27 0 49 -2 49 -4z"/>
</g>
</svg>
