<?xml version="1.0" encoding="utf-8"?>
<!-- Generated by IcoMoon.io -->
<!DOCTYPE svg PUBLIC "-//W3C//DTD SVG 1.1//EN" "http://www.w3.org/Graphics/SVG/1.1/DTD/svg11.dtd">
<svg version="1.1" xmlns="http://www.w3.org/2000/svg" xmlns:xlink="http://www.w3.org/1999/xlink" width="32" height="32" viewBox="0 0 32 32">
<path d="M27 2.125h-22c-1.625 0-2.875 1.25-2.875 2.875v22c0 1.625 1.25 2.875 2.875 2.875h22c1.625 0 2.875-1.25 2.875-2.875v-22c0-1.625-1.25-2.875-2.875-2.875zM27.375 25.875c0 0.813-0.688 1.5-1.5 1.5h-19.75c-0.813 0-1.5-0.688-1.5-1.5v-19.75c0-0.813 0.688-1.5 1.5-1.5h19.75c0.813 0 1.5 0.688 1.5 1.5z"></path>
</svg>
