<?xml version="1.0" encoding="utf-8"?>
<!-- Generated by IcoMoon.io -->
<!DOCTYPE svg PUBLIC "-//W3C//DTD SVG 1.1//EN" "http://www.w3.org/Graphics/SVG/1.1/DTD/svg11.dtd">
<svg version="1.1" xmlns="http://www.w3.org/2000/svg" xmlns:xlink="http://www.w3.org/1999/xlink" width="32" height="32" viewBox="0 0 32 32">
<path d="M27 2.125h-22c-1.625 0-2.875 1.25-2.875 2.875v22c0 1.625 1.25 2.875 2.875 2.875h22c1.625 0 2.875-1.25 2.875-2.875v-22c0-1.625-1.25-2.875-2.875-2.875zM23.188 10.625l-7.75 12.375c-0.313 0.438-0.75 0.75-1.25 0.75 0 0-0.063 0-0.063 0-0.5 0-0.938-0.25-1.25-0.625l-3.938-5.188c-0.5-0.688-0.375-1.688 0.313-2.188 0.625-0.5 1.625-0.375 2.125 0.313l2.625 3.438 6.563-10.5c0.438-0.75 1.375-1 2.125-0.5 0.688 0.438 0.938 1.375 0.5 2.125z"></path>
</svg>
