<?xml version="1.0" encoding="utf-8"?>
<!-- Generated by IcoMoon.io -->
<!DOCTYPE svg PUBLIC "-//W3C//DTD SVG 1.1//EN" "http://www.w3.org/Graphics/SVG/1.1/DTD/svg11.dtd">
<svg version="1.1" xmlns="http://www.w3.org/2000/svg" xmlns:xlink="http://www.w3.org/1999/xlink" width="32" height="32" viewBox="0 0 32 32">
<path d="M18.125 15.969c3.313-3.625 11.75-13.125 11.75-13.125 0.5-0.563 0.438-1.438-0.125-1.938s-1.438-0.438-1.938 0.125l-11.75 13.25c0 0-0.063-0.063-0.063-0.063-0.063 0-0.063 0.063-0.063 0.063l-11.75-13.25c-0.5-0.563-1.375-0.625-1.938-0.125s-0.625 1.375-0.125 1.938c0 0 8.438 9.5 11.688 13.125-3.25 3.688-11.688 13.188-11.688 13.188-0.5 0.563-0.438 1.438 0.125 1.938s1.438 0.438 1.938-0.125l11.75-13.25c0 0 0 0 0.063 0 0 0 0.063 0 0.063 0l11.75 13.25c0.5 0.563 1.375 0.625 1.938 0.125s0.625-1.375 0.125-1.938c0 0-8.438-9.5-11.75-13.188z"></path>
</svg>
