<?xml version="1.0" encoding="utf-8"?>
<!-- Generated by IcoMoon.io -->
<!DOCTYPE svg PUBLIC "-//W3C//DTD SVG 1.1//EN" "http://www.w3.org/Graphics/SVG/1.1/DTD/svg11.dtd">
<svg version="1.1" xmlns="http://www.w3.org/2000/svg" xmlns:xlink="http://www.w3.org/1999/xlink" width="32" height="32" viewBox="0 0 32 32">
<path d="M23.443 7.219c0 0-4.245 0-4.245 0-0.233 0-0.523 0.174-0.756 0.465-0.174 0.291-0.291 0.698-0.291 1.105 0 0 0 3.024 0 3.024s5.292 0 5.292 0c0 0 0 4.42 0 4.42s-5.292 0-5.292 0c0 0 0 13.142 0 13.142s-5.059 0-5.059 0c0 0 0-13.142 0-13.142s-4.536 0-4.536 0c0 0 0-4.42 0-4.42s4.536 0 4.536 0c0 0 0-2.559 0-2.559 0-1.861 0.582-3.431 1.745-4.71s2.617-1.919 4.361-1.919c0 0 4.245 0 4.245 0s0 4.594 0 4.594z"></path>
</svg>
