<?xml version="1.0" encoding="utf-8"?>
<!-- Generated by IcoMoon.io -->
<!DOCTYPE svg PUBLIC "-//W3C//DTD SVG 1.1//EN" "http://www.w3.org/Graphics/SVG/1.1/DTD/svg11.dtd">
<svg version="1.1" xmlns="http://www.w3.org/2000/svg" xmlns:xlink="http://www.w3.org/1999/xlink" width="32" height="32" viewBox="0 0 32 32">
<path d="M16 2.625c3.697 0 6.851 1.305 9.46 3.915 2.61 2.664 3.915 5.763 3.915 9.46s-1.305 6.851-3.915 9.46c-2.61 2.61-5.763 3.915-9.46 3.915s-6.796-1.305-9.46-3.915c-2.61-2.61-3.915-5.763-3.915-9.46s1.305-6.796 3.915-9.46c2.664-2.61 5.763-3.915 9.46-3.915zM27.418 16c0-2.447-0.707-4.676-2.175-6.633-1.468-2.012-3.317-3.371-5.6-4.186-0.381 0.489-0.489 0.761-0.489 0.924 0.109 0.707 0.272 1.142 0.544 1.414 0.218 0.218 0.489 0.272 0.816 0.163 0 0 0.87-0.326 0.87-0.326s0.218 0 0.598-0.054c0.381 0.435 0.381 0.87 0 1.305-0.435 0.435-0.87 0.979-1.25 1.577-0.435 0.598-0.435 1.305-0.054 2.12 0.652 1.196 1.522 1.794 2.664 1.794 0.544 0.054 0.924 0.381 1.196 1.033 0.272 0.598 0.435 1.196 0.489 1.794 0.163 1.522 0.054 2.827-0.381 3.915-0.435 0.816-0.272 1.522 0.381 2.12 1.577-2.066 2.392-4.404 2.392-6.959zM14.423 4.745c-2.066 0.272-3.915 1.033-5.546 2.338-1.577 1.305-2.773 2.936-3.534 4.839 0.109 0 0.326 0.054 0.652 0.054 0.272 0.054 0.544 0.054 0.761 0.109 0.218 0 0.489 0.054 0.707 0.109 0.272 0.054 0.489 0.109 0.707 0.217 0.163 0.109 0.272 0.217 0.326 0.381 0.054 0.217-0.054 0.598-0.381 1.251-0.381 0.598-0.544 1.142-0.544 1.685s0.381 1.087 1.087 1.577c0.707 0.435 1.033 0.87 1.033 1.25 0 0.544 0.109 1.142 0.217 1.903 0.163 0.761 0.217 1.142 0.217 1.196 0 0.272 0.381 0.761 1.033 1.522s1.142 1.196 1.468 1.196c0.163 0 0.272-0.218 0.272-0.652 0.054-0.381 0-0.87-0.054-1.468s-0.054-0.979-0.054-1.142c0-0.598 0.109-1.25 0.381-2.066 0.217-0.761 0.761-1.414 1.631-1.957 0.87-0.489 1.359-0.924 1.522-1.251 0.326-0.652 0.381-1.196 0.272-1.685-0.163-0.544-0.326-0.924-0.489-1.196-0.163-0.326-0.489-0.598-0.924-0.816-0.489-0.217-0.87-0.381-1.142-0.435-0.326-0.109-0.652-0.217-1.033-0.272s-0.598-0.109-0.652-0.109c-0.272-0.109-0.652-0.163-1.142-0.217-0.489 0-0.816 0.054-0.979 0.109-0.217 0.054-0.489-0.054-0.761-0.326-0.326-0.272-0.489-0.544-0.489-0.816 0-0.163 0.163-0.435 0.435-0.707 0.272-0.326 0.598-0.652 0.979-1.033 0.326-0.381 0.598-0.652 0.761-0.87s0.326-0.435 0.489-0.544c0.163-0.163 0.326-0.326 0.598-0.489 0.217-0.163 0.489-0.326 0.761-0.544 0.054-0.109 0.272-0.272 0.707-0.489 0.381-0.272 0.598-0.435 0.707-0.652zM12.412 26.874c1.251 0.381 2.447 0.544 3.588 0.544 2.392 0 4.458-0.652 6.307-1.903-0.489-0.816-1.577-1.142-3.317-0.924-0.435 0-1.033 0.163-1.794 0.435-0.761 0.326-1.196 0.435-1.305 0.489-1.359 0.326-2.066 0.435-2.12 0.435-0.217 0.054-0.435 0.163-0.707 0.381-0.272 0.272-0.489 0.435-0.652 0.544z"></path>
</svg>
