<?xml version="1.0" encoding="utf-8"?>
<!-- Generated by IcoMoon.io -->
<!DOCTYPE svg PUBLIC "-//W3C//DTD SVG 1.1//EN" "http://www.w3.org/Graphics/SVG/1.1/DTD/svg11.dtd">
<svg version="1.1" xmlns="http://www.w3.org/2000/svg" xmlns:xlink="http://www.w3.org/1999/xlink" width="32" height="32" viewBox="0 0 32 32">
<path d="M3.188 8.875c0-1.188 0.25-2.313 0.813-3.25s1.125-1.625 1.813-2.063c0.625-0.438 1.375-0.813 2.188-1.125 0.813-0.25 1.438-0.438 1.813-0.438 0.375-0.063 0.625-0.063 0.813-0.063 0 0 7.375 0 7.375 0s0 0.125 0 0.125c0 0.438-0.875 0.813-2.5 1.125-0.625 0-1 0.063-1.25 0.188 0.875 0.438 1.438 1.063 1.75 1.813s0.438 1.813 0.438 3.063c0 2.188-0.688 3.875-2.188 5.063-0.813 0.813-1.188 1.375-1.188 1.75s0.5 1.063 1.563 2c2.25 1.938 3.375 3.875 3.375 5.75 0 2.938-1.25 5-3.75 6.188-1.438 0.688-3 1.063-4.75 1.063 0 0-0.125 0-0.125 0s-0.188-0.063-0.188-0.063c0 0.063-0.063 0.063-0.125 0.063-0.5 0-1.063-0.063-1.688-0.125-0.625-0.125-1.438-0.375-2.438-0.688-0.938-0.313-1.75-0.938-2.375-1.813-0.563-0.875-0.875-2-0.875-3.313 0-1.25 0.313-2.375 1-3.25s1.563-1.438 2.688-1.813c1.063-0.313 2-0.563 2.813-0.688 0.75-0.125 1.5-0.188 2.25-0.188 0 0 0.063 0 0.063 0-0.375-0.5-0.625-1-0.75-1.5-0.188-0.563-0.25-0.938-0.25-1.25 0 0 0.063-0.438 0.063-0.438s-0.5 0-0.5 0c-1.313 0-2.5-0.375-3.5-1-1.563-0.938-2.375-2.625-2.375-5.125zM15.063 23.375c-0.125-1.125-0.563-2-1.375-2.688-0.875-0.688-1.938-1.063-3.313-1.063 0 0-0.5 0-0.5 0-1.375 0.063-2.625 0.563-3.688 1.5-0.938 0.875-1.438 1.875-1.313 3 0.063 1.125 0.625 1.938 1.688 2.563s2.313 0.875 3.813 0.75c1.438-0.063 2.625-0.5 3.5-1.25s1.25-1.688 1.188-2.813zM13.125 7.375c-0.625-2.313-1.938-3.5-3.938-3.5-0.25 0-0.438 0.063-0.625 0.063-0.813 0.313-1.438 0.938-1.813 2s-0.375 2.188-0.125 3.438c0.313 1.063 0.813 2 1.563 2.688 0.688 0.688 1.438 1.063 2.25 1.063 0.25 0 0.438 0 0.563-0.063 0.875-0.25 1.563-0.938 2-2.063 0.5-1.125 0.5-2.375 0.125-3.625zM25.563 12.938c0 0 4.75 0 4.75 0s0 3 0 3c0 0-4.75 0-4.75 0s0 4.813 0 4.813c0 0-3.063 0-3.063 0s0-4.813 0-4.813c0 0-4.75 0-4.75 0s0-3 0-3c0 0 4.75 0 4.75 0s0-4.813 0-4.813c0 0 3.063 0 3.063 0s0 4.813 0 4.813z"></path>
</svg>
