<?xml version="1.0" encoding="utf-8"?>
<!-- Generated by IcoMoon.io -->
<!DOCTYPE svg PUBLIC "-//W3C//DTD SVG 1.1//EN" "http://www.w3.org/Graphics/SVG/1.1/DTD/svg11.dtd">
<svg version="1.1" xmlns="http://www.w3.org/2000/svg" xmlns:xlink="http://www.w3.org/1999/xlink" width="32" height="32" viewBox="0 0 32 32">
<path d="M29.33 18.898v9.852h-5.68v-9.215c0-2.318-0.869-3.883-2.898-3.883-1.623 0-2.55 1.043-2.956 2.086-0.174 0.406-0.174 0.869-0.174 1.391v9.62h-5.738c0 0 0.058-15.59 0-17.212h5.738v2.434c-0.058 0-0.058 0.058-0.058 0.058h0.058v-0.058c0.753-1.159 2.086-2.84 5.158-2.84 3.767 0 6.549 2.492 6.549 7.766zM5.916 3.25c-1.97 0-3.245 1.275-3.245 2.956s1.217 3.014 3.13 3.014h0.058c1.97 0 3.245-1.333 3.245-3.014-0.058-1.681-1.275-2.956-3.188-2.956zM2.96 28.75h5.737v-17.212h-5.737z"></path>
</svg>
