<?xml version="1.0" encoding="utf-8"?>
<!-- Generated by IcoMoon.io -->
<!DOCTYPE svg PUBLIC "-//W3C//DTD SVG 1.1//EN" "http://www.w3.org/Graphics/SVG/1.1/DTD/svg11.dtd">
<svg version="1.1" xmlns="http://www.w3.org/2000/svg" xmlns:xlink="http://www.w3.org/1999/xlink" width="32" height="32" viewBox="0 0 32 32">
<path d="M12.625 23.531c0.313-0.313 0.625-0.438 1.063-0.438s0.813 0.125 1.188 0.438c0.625 0.688 0.625 1.438 0 2.25 0 0-1.375 1.25-1.375 1.25-1.188 1.188-2.625 1.813-4.25 1.813s-3.063-0.625-4.25-1.813c-1.188-1.188-1.813-2.625-1.813-4.188 0-1.688 0.625-3.125 1.813-4.313 0 0 4.75-4.75 4.75-4.75 1.5-1.438 3-2.25 4.563-2.438 1.625-0.188 2.938 0.25 4.125 1.375 0.313 0.313 0.5 0.688 0.5 1.125s-0.188 0.813-0.5 1.188c-0.75 0.688-1.5 0.688-2.25 0-1.063-1.063-2.5-0.688-4.25 1.063 0 0-4.688 4.688-4.688 4.688-0.563 0.563-0.875 1.25-0.875 2.063s0.313 1.438 0.875 1.938c0.563 0.563 1.188 0.875 2 0.875s1.438-0.313 2-0.875c0 0 1.375-1.25 1.375-1.25zM27 5.156c1.188 1.188 1.813 2.625 1.813 4.25s-0.625 3.063-1.813 4.25c0 0-5.063 5.063-5.063 5.063-1.563 1.563-3.188 2.313-4.813 2.313-1.313 0-2.5-0.563-3.563-1.625-0.313-0.313-0.438-0.625-0.438-1.063s0.125-0.813 0.438-1.188c0.313-0.25 0.688-0.438 1.125-0.438s0.813 0.188 1.125 0.438c1.063 1.063 2.375 0.813 3.875-0.75 0 0 5.063-5 5.063-5 0.625-0.563 0.938-1.25 0.938-2 0-0.813-0.313-1.5-0.938-2-0.5-0.563-1.063-0.875-1.75-1s-1.375 0.125-1.938 0.688c0 0-1.625 1.563-1.625 1.563-0.313 0.313-0.688 0.438-1.125 0.438s-0.813-0.125-1.125-0.438c-0.688-0.688-0.688-1.438 0-2.25 0 0 1.625-1.563 1.625-1.563 1.125-1.188 2.5-1.688 4.063-1.625s2.938 0.688 4.125 1.938z"></path>
</svg>
