<?xml version="1.0" encoding="utf-8"?>
<!-- Generated by IcoMoon.io -->
<!DOCTYPE svg PUBLIC "-//W3C//DTD SVG 1.1//EN" "http://www.w3.org/Graphics/SVG/1.1/DTD/svg11.dtd">
<svg version="1.1" xmlns="http://www.w3.org/2000/svg" xmlns:xlink="http://www.w3.org/1999/xlink" width="32" height="32" viewBox="0 0 32 32">
<path d="M22.875 16c0 3.813-3.063 6.875-6.875 6.875s-6.875-3.063-6.875-6.875c0-3.813 3.063-6.875 6.875-6.875s6.875 3.063 6.875 6.875zM29.25 10.375c-0.688-1.688-1.75-3.25-3.063-4.563s-2.875-2.375-4.563-3.125c-1.813-0.75-3.688-1.125-5.625-1.125s-3.813 0.375-5.625 1.125c-1.688 0.75-3.25 1.813-4.563 3.125s-2.375 2.875-3.125 4.563c-0.75 1.813-1.125 3.688-1.125 5.625s0.375 3.813 1.125 5.625c0.75 1.688 1.813 3.25 3.125 4.563s2.875 2.375 4.563 3.063c1.813 0.75 3.688 1.188 5.625 1.188s3.813-0.438 5.625-1.188c1.688-0.688 3.25-1.75 4.563-3.063s2.375-2.875 3.063-4.563c0.75-1.813 1.188-3.688 1.188-5.625s-0.438-3.813-1.188-5.625zM16 28.125c-6.688 0-12.188-5.438-12.188-12.125s5.5-12.188 12.188-12.188c6.688 0 12.125 5.5 12.125 12.188s-5.438 12.125-12.125 12.125z"></path>
</svg>
