<?xml version="1.0" encoding="utf-8"?>
<!-- Generated by IcoMoon.io -->
<!DOCTYPE svg PUBLIC "-//W3C//DTD SVG 1.1//EN" "http://www.w3.org/Graphics/SVG/1.1/DTD/svg11.dtd">
<svg version="1.1" xmlns="http://www.w3.org/2000/svg" xmlns:xlink="http://www.w3.org/1999/xlink" width="32" height="32" viewBox="0 0 32 32">
<path d="M30.75 6.906c-0.813 1.125-1.813 2.188-3.063 3.125 0 0 0 0.75 0 0.75 0 2.75-0.625 5.438-1.875 8-1.313 2.563-3.313 4.75-6 6.5s-5.75 2.625-9.25 2.625c-3.438 0-6.5-0.875-9.313-2.688 0.313 0.063 0.813 0.063 1.5 0.063 2.813 0 5.313-0.813 7.5-2.5-1.313-0.063-2.5-0.5-3.5-1.25-1.063-0.75-1.75-1.75-2.125-3 0.188 0.063 0.563 0.125 1.063 0.125 0.563 0 1.125-0.063 1.625-0.188-1.438-0.313-2.563-1-3.5-2.125-0.875-1.125-1.313-2.375-1.313-3.813 0 0 0-0.063 0-0.063 0.75 0.375 1.688 0.688 2.688 0.75-1.813-1.25-2.688-2.938-2.688-5.063 0-1 0.25-2 0.813-3 3.313 4 7.438 6.125 12.5 6.25-0.125-0.375-0.188-0.813-0.188-1.313 0-1.688 0.563-3.125 1.75-4.25 1.188-1.188 2.625-1.75 4.313-1.75 1.75 0 3.188 0.563 4.375 1.813 1.25-0.25 2.563-0.688 3.813-1.375-0.438 1.375-1.313 2.5-2.625 3.313 1.188-0.188 2.375-0.5 3.5-0.938z"></path>
</svg>
