<?xml version="1.0" encoding="utf-8"?>
<!-- Generated by IcoMoon.io -->
<!DOCTYPE svg PUBLIC "-//W3C//DTD SVG 1.1//EN" "http://www.w3.org/Graphics/SVG/1.1/DTD/svg11.dtd">
<svg version="1.1" xmlns="http://www.w3.org/2000/svg" xmlns:xlink="http://www.w3.org/1999/xlink" width="32" height="32" viewBox="0 0 32 32">
<path d="M14.063 13c-0.063 0.188-1.625 2.875-4.563 8.125-0.313 0.563-0.688 0.813-1.188 0.813h-4.25c-0.25 0-0.438-0.125-0.563-0.313s-0.125-0.438 0-0.625l4.563-8c0 0 0 0 0 0l-2.875-5c-0.188-0.25-0.188-0.5-0.063-0.688s0.313-0.25 0.563-0.25h4.313c0.438 0 0.875 0.25 1.188 0.813zM28.5 1.5c0.125 0.188 0.125 0.438 0 0.688l-9.438 16.688 6 11c0.125 0.188 0.125 0.438 0 0.625s-0.313 0.25-0.563 0.25h-4.25c-0.5 0-0.938-0.25-1.188-0.75l-6.063-11.125c0.188-0.375 3.375-6 9.5-16.813 0.25-0.563 0.688-0.813 1.125-0.813h4.313c0.25 0 0.438 0.063 0.563 0.25z"></path>
</svg>
