<?xml version="1.0" encoding="utf-8"?>
<!-- Generated by IcoMoon.io -->
<!DOCTYPE svg PUBLIC "-//W3C//DTD SVG 1.1//EN" "http://www.w3.org/Graphics/SVG/1.1/DTD/svg11.dtd">
<svg version="1.1" xmlns="http://www.w3.org/2000/svg" xmlns:xlink="http://www.w3.org/1999/xlink" width="32" height="32" viewBox="0 0 32 32">
<path d="M23.734 22.222h-1.454v-0.872c0-0.407 0.291-0.698 0.698-0.698h0.058c0.407 0 0.698 0.291 0.698 0.698zM18.21 20.361c-0.349 0-0.698 0.233-0.698 0.582v4.129c0 0.291 0.349 0.582 0.698 0.582s0.698-0.291 0.698-0.582v-4.129c0-0.349-0.349-0.582-0.698-0.582zM27.165 18.035v7.909c0 1.919-1.628 3.431-3.664 3.431h-15.003c-2.035 0-3.664-1.512-3.664-3.431v-7.909c0-1.861 1.628-3.431 3.664-3.431h15.003c2.035 0 3.664 1.57 3.664 3.431zM9.487 26.816v-8.316h1.861v-1.221l-4.943-0.058v1.221h1.512v8.374zM15.070 19.722h-1.57v4.42c0 0.698 0.058 0.989 0 1.105-0.116 0.349-0.698 0.698-0.872 0.058-0.058-0.116 0-0.465 0-1.105l-0.058-4.478h-1.512v4.42c0 0.64 0 1.163 0 1.396 0.058 0.407 0 0.872 0.407 1.163 0.698 0.465 2.035-0.116 2.384-0.814v0.93h1.221v-7.095zM20.012 24.839v-3.722c0-1.396-1.047-2.268-2.442-1.105v-2.733h-1.57v9.479h1.279l0.116-0.64c1.628 1.512 2.675 0.465 2.617-1.279zM24.897 24.316h-1.163c0 0.058 0 0.116 0 0.174v0.64c0 0.349-0.291 0.64-0.64 0.64h-0.233c-0.349 0-0.64-0.291-0.64-0.64v-1.686h2.675v-0.989c0-0.756 0-1.512-0.058-1.919-0.233-1.337-2.093-1.512-3.024-0.872-0.291 0.233-0.523 0.523-0.64 0.872-0.116 0.407-0.174 0.93-0.174 1.57v2.21c0 3.664 4.42 3.14 3.896 0zM18.908 12.336c0.116 0.233 0.233 0.349 0.407 0.465s0.349 0.174 0.64 0.174c0.233 0 0.407-0.058 0.582-0.174s0.291-0.291 0.407-0.523v0.582h1.745v-7.385h-1.396v5.757c0 0.291-0.233 0.582-0.582 0.582-0.291 0-0.523-0.291-0.523-0.582v-5.757h-1.454v5.001c0 0.64 0 1.047 0.058 1.279 0 0.174 0.058 0.407 0.116 0.582zM13.674 8.208c0-0.698 0.058-1.279 0.174-1.686s0.349-0.698 0.64-0.93c0.291-0.233 0.698-0.349 1.163-0.349 0.407 0 0.756 0.058 1.047 0.233 0.291 0.116 0.523 0.349 0.64 0.582 0.174 0.233 0.291 0.523 0.349 0.756 0.058 0.291 0.058 0.698 0.058 1.221v1.861c0 0.698 0 1.163-0.058 1.512-0.058 0.291-0.174 0.582-0.349 0.872s-0.407 0.465-0.64 0.64c-0.291 0.116-0.582 0.174-0.93 0.174-0.407 0-0.756-0.058-1.047-0.174-0.233-0.116-0.465-0.291-0.64-0.523-0.116-0.233-0.233-0.465-0.291-0.814-0.058-0.291-0.116-0.814-0.116-1.454v-1.919zM15.011 11.115c0 0.407 0.349 0.756 0.698 0.756 0.407 0 0.698-0.349 0.698-0.756v-3.896c0-0.465-0.291-0.756-0.698-0.756-0.349 0-0.698 0.291-0.698 0.756zM10.243 13.092h1.628v-5.641l1.919-4.827h-1.745l-1.047 3.605-1.047-3.605h-1.745l2.035 4.827z"></path>
</svg>
